<svg width="111" height="154" viewBox="0 0 111 154" fill="none" xmlns="http://www.w3.org/2000/svg">
<path d="M22.8459 9.156C22.3979 9.156 22.0739 9.06 21.8739 8.868C21.6819 8.668 21.5859 8.432 21.5859 8.16V7.74C21.5859 7.468 21.6819 7.236 21.8739 7.044C22.0739 6.844 22.3979 6.744 22.8459 6.744C23.2939 6.744 23.6139 6.844 23.8059 7.044C24.0059 7.236 24.1059 7.468 24.1059 7.74V8.16C24.1059 8.432 24.0059 8.668 23.8059 8.868C23.6139 9.06 23.2939 9.156 22.8459 9.156Z" fill="#00199A" fill-opacity="0.69005"/>
<path d="M30.4253 2.028C30.0253 2.028 29.7453 1.948 29.5853 1.788C29.4333 1.62 29.3573 1.42 29.3573 1.188V0.84C29.3573 0.6 29.4333 0.4 29.5853 0.24C29.7453 0.0799999 30.0253 0 30.4253 0C30.8253 0 31.1013 0.0799999 31.2533 0.24C31.4133 0.4 31.4933 0.6 31.4933 0.84V1.188C31.4933 1.42 31.4133 1.62 31.2533 1.788C31.1013 1.948 30.8253 2.028 30.4253 2.028ZM27.5693 7.632H29.5373V4.2H27.5693V2.82H31.3133V7.632H33.1372V9.012H27.5693V7.632Z" fill="#00199A" fill-opacity="0.69005"/>
<path d="M37.4286 9.156C36.3086 9.156 35.4766 8.78 34.9326 8.028C34.3966 7.268 34.1286 6.2 34.1286 4.824C34.1286 3.448 34.3966 2.384 34.9326 1.632C35.4766 0.872 36.3086 0.492 37.4286 0.492C37.8606 0.492 38.2406 0.552 38.5686 0.672C38.9046 0.784 39.1926 0.944 39.4326 1.152C39.6726 1.36 39.8686 1.612 40.0206 1.908C40.1806 2.204 40.3046 2.536 40.3926 2.904L38.7126 3.312C38.6646 3.112 38.6086 2.928 38.5446 2.76C38.4806 2.592 38.3966 2.448 38.2926 2.328C38.1966 2.208 38.0726 2.116 37.9206 2.052C37.7766 1.98 37.6006 1.944 37.3926 1.944C36.9046 1.944 36.5566 2.136 36.3486 2.52C36.1486 2.896 36.0486 3.42 36.0486 4.092V5.556C36.0486 6.228 36.1486 6.756 36.3486 7.14C36.5566 7.516 36.9046 7.704 37.3926 7.704C37.8086 7.704 38.1086 7.576 38.2926 7.32C38.4846 7.064 38.6246 6.736 38.7126 6.336L40.3926 6.744C40.3046 7.112 40.1806 7.444 40.0206 7.74C39.8686 8.036 39.6726 8.292 39.4326 8.508C39.1926 8.716 38.9046 8.876 38.5686 8.988C38.2406 9.1 37.8606 9.156 37.4286 9.156Z" fill="#00199A" fill-opacity="0.69005"/>
<path d="M43.5319 9.012V6.048L40.8799 0.636H42.8839L43.7719 2.58L44.4199 4.224H44.5159L45.1639 2.58L46.0519 0.636H47.9839L45.3319 6.048V9.012H43.5319Z" fill="#00199A" fill-opacity="0.69005"/>
<path d="M50.4272 3.444H50.2952V9.012H48.7592V0.636H50.9192L52.8272 6.204H52.9592V0.636H54.4952V9.012H52.3352L50.4272 3.444Z" fill="#00199A" fill-opacity="0.69005"/>
<path d="M56.1825 9.012V0.636H61.5345V2.112H57.9825V4.032H61.4145V5.508H57.9825V7.536H61.5345V9.012H56.1825Z" fill="#00199A" fill-opacity="0.69005"/>
<path d="M66.0178 9.156C64.8978 9.156 64.0698 8.776 63.5338 8.016C63.0058 7.256 62.7418 6.192 62.7418 4.824C62.7418 3.456 63.0058 2.392 63.5338 1.632C64.0698 0.872 64.8978 0.492 66.0178 0.492C67.1378 0.492 67.9618 0.872 68.4898 1.632C69.0258 2.392 69.2938 3.456 69.2938 4.824C69.2938 6.192 69.0258 7.256 68.4898 8.016C67.9618 8.776 67.1378 9.156 66.0178 9.156ZM66.0178 7.704C66.5298 7.704 66.8818 7.516 67.0738 7.14C67.2738 6.756 67.3738 6.224 67.3738 5.544V4.092C67.3738 3.42 67.2738 2.896 67.0738 2.52C66.8818 2.136 66.5298 1.944 66.0178 1.944C65.5058 1.944 65.1498 2.136 64.9498 2.52C64.7578 2.896 64.6618 3.42 64.6618 4.092V5.556C64.6618 6.228 64.7578 6.756 64.9498 7.14C65.1498 7.516 65.5058 7.704 66.0178 7.704Z" fill="#00199A" fill-opacity="0.69005"/>
<path d="M71.0171 6.684H69.7211V5.364H71.2571L71.4371 4.284H70.1771V2.964H71.6771L72.0851 0.636H73.4891L72.0131 9.012H70.6091L71.0171 6.684ZM74.4131 0.636H75.8171L75.4091 2.964H76.7051V4.284H75.1691L74.9891 5.364H76.2491V6.684H74.7491L74.3411 9.012H72.9371L74.4131 0.636Z" fill="#00199A" fill-opacity="0.69005"/>
<path d="M77.9124 10.032H80.2884V4.2H77.8884V2.82H82.0644V9.624C82.0644 10.144 81.9084 10.572 81.5964 10.908C81.2844 11.244 80.8124 11.412 80.1804 11.412H77.9124V10.032ZM81.1764 2.028C80.7764 2.028 80.4964 1.948 80.3364 1.788C80.1844 1.62 80.1084 1.42 80.1084 1.188V0.84C80.1084 0.6 80.1844 0.4 80.3364 0.24C80.4964 0.0799999 80.7764 0 81.1764 0C81.5684 0 81.8444 0.0799999 82.0044 0.24C82.1644 0.4 82.2444 0.6 82.2444 0.84V1.188C82.2444 1.42 82.1644 1.62 82.0044 1.788C81.8444 1.948 81.5684 2.028 81.1764 2.028Z" fill="#00199A" fill-opacity="0.69005"/>
<path d="M87.6037 9.156C87.1557 9.156 86.8317 9.06 86.6317 8.868C86.4397 8.668 86.3438 8.432 86.3438 8.16V7.74C86.3438 7.468 86.4397 7.236 86.6317 7.044C86.8317 6.844 87.1557 6.744 87.6037 6.744C88.0517 6.744 88.3718 6.844 88.5638 7.044C88.7638 7.236 88.8638 7.468 88.8638 7.74V8.16C88.8638 8.432 88.7638 8.668 88.5638 8.868C88.3718 9.06 88.0517 9.156 87.6037 9.156Z" fill="#00199A" fill-opacity="0.69005"/>
<path d="M16.0346 18.028C15.6346 18.028 15.3546 17.948 15.1946 17.788C15.0426 17.62 14.9666 17.42 14.9666 17.188V16.84C14.9666 16.6 15.0426 16.4 15.1946 16.24C15.3546 16.08 15.6346 16 16.0346 16C16.4346 16 16.7106 16.08 16.8626 16.24C17.0226 16.4 17.1026 16.6 17.1026 16.84V17.188C17.1026 17.42 17.0226 17.62 16.8626 17.788C16.7106 17.948 16.4346 18.028 16.0346 18.028ZM13.1786 23.632H15.1466V20.2H13.1786V18.82H16.9226V23.632H18.7466V25.012H13.1786V23.632Z" fill="#00199A" fill-opacity="0.69005"/>
<path d="M20.3499 25.012V16.636H22.1619V23.536H25.7619V25.012H20.3499Z" fill="#00199A" fill-opacity="0.69005"/>
<path d="M27.2932 23.632H29.1173V20.2H27.1733V18.82H29.1173V17.92C29.1173 17.392 29.2692 16.964 29.5732 16.636C29.8852 16.3 30.3652 16.132 31.0132 16.132H33.1133V17.512H30.8932V18.82H33.1133V20.2H30.8932V23.632H32.8372V25.012H27.2932V23.632Z" fill="#00199A" fill-opacity="0.69005"/>
<path d="M34.4166 25.012V18.82H36.1926V19.948H36.2646C36.3366 19.772 36.4246 19.608 36.5286 19.456C36.6326 19.304 36.7566 19.172 36.9006 19.06C37.0526 18.94 37.2246 18.848 37.4166 18.784C37.6166 18.712 37.8406 18.676 38.0886 18.676C38.3846 18.676 38.6566 18.728 38.9046 18.832C39.1526 18.928 39.3646 19.076 39.5406 19.276C39.7166 19.476 39.8526 19.72 39.9486 20.008C40.0526 20.296 40.1046 20.628 40.1046 21.004V25.012H38.3286V21.244C38.3286 20.444 37.9806 20.044 37.2846 20.044C37.1486 20.044 37.0126 20.064 36.8766 20.104C36.7486 20.136 36.6326 20.192 36.5286 20.272C36.4246 20.344 36.3406 20.436 36.2766 20.548C36.2206 20.66 36.1926 20.792 36.1926 20.944V25.012H34.4166Z" fill="#00199A" fill-opacity="0.69005"/>
<path d="M46.0039 21.28L46.0999 18.94H45.9919L44.4319 23.248L42.8719 18.94H42.7639L42.8599 21.28V25.012H41.2999V16.636H43.4239L44.4559 19.456H44.5519L45.5839 16.636H47.5639V25.012H46.0039V21.28Z" fill="#00199A" fill-opacity="0.69005"/>
<path d="M53.2472 25.012L52.7192 22.996H50.4272L49.9112 25.012H48.0872L50.3552 16.636H52.8992L55.1672 25.012H53.2472ZM51.6272 18.376H51.5312L50.7152 21.544H52.4432L51.6272 18.376Z" fill="#00199A" fill-opacity="0.69005"/>
<path d="M56.1225 25.012V23.68H57.9225V17.968H56.1225V16.636H61.5225V17.968H59.7225V23.68H61.5225V25.012H56.1225Z" fill="#00199A" fill-opacity="0.69005"/>
<path d="M64.8178 19.444H64.6858V25.012H63.1498V16.636H65.3098L67.2178 22.204H67.3498V16.636H68.8858V25.012H66.7258L64.8178 19.444Z" fill="#00199A" fill-opacity="0.69005"/>
<path d="M70.2611 25.012L69.7451 16.636H71.2931L71.5331 21.652L71.6051 23.236H71.7131L72.4331 18.46H74.0531L74.7731 23.236H74.8811L74.9531 21.7L75.1931 16.636H76.6811L76.1651 25.012H73.8851L73.2731 20.392H73.1531L72.5411 25.012H70.2611Z" fill="#00199A" fill-opacity="0.69005"/>
<path d="M80.5764 25.156C79.5364 25.156 78.7484 24.868 78.2124 24.292C77.6764 23.716 77.4084 22.932 77.4084 21.94C77.4084 21.436 77.4764 20.984 77.6124 20.584C77.7564 20.176 77.9564 19.832 78.2124 19.552C78.4764 19.264 78.7924 19.048 79.1604 18.904C79.5364 18.752 79.9564 18.676 80.4204 18.676C80.8844 18.676 81.3004 18.752 81.6684 18.904C82.0364 19.048 82.3484 19.256 82.6044 19.528C82.8604 19.8 83.0564 20.132 83.1924 20.524C83.3364 20.908 83.4084 21.34 83.4084 21.82V22.348H79.1724V22.456C79.1724 22.856 79.2964 23.18 79.5444 23.428C79.7924 23.668 80.1564 23.788 80.6364 23.788C81.0044 23.788 81.3204 23.72 81.5844 23.584C81.8484 23.44 82.0764 23.252 82.2684 23.02L83.2284 24.064C82.9884 24.36 82.6524 24.616 82.2204 24.832C81.7884 25.048 81.2404 25.156 80.5764 25.156ZM80.4324 19.948C80.0484 19.948 79.7404 20.068 79.5084 20.308C79.2844 20.54 79.1724 20.856 79.1724 21.256V21.352H81.6684V21.256C81.6684 20.848 81.5564 20.528 81.3324 20.296C81.1164 20.064 80.8164 19.948 80.4324 19.948Z" fill="#00199A" fill-opacity="0.69005"/>
<path d="M85.1078 26.032H87.4837V20.2H85.0838V18.82H89.2598V25.624C89.2598 26.144 89.1037 26.572 88.7917 26.908C88.4797 27.244 88.0077 27.412 87.3757 27.412H85.1078V26.032ZM88.3717 18.028C87.9717 18.028 87.6918 17.948 87.5318 17.788C87.3798 17.62 87.3038 17.42 87.3038 17.188V16.84C87.3038 16.6 87.3798 16.4 87.5318 16.24C87.6918 16.08 87.9717 16 88.3717 16C88.7637 16 89.0398 16.08 89.1998 16.24C89.3598 16.4 89.4397 16.6 89.4397 16.84V17.188C89.4397 17.42 89.3598 17.62 89.1998 17.788C89.0398 17.948 88.7637 18.028 88.3717 18.028Z" fill="#00199A" fill-opacity="0.69005"/>
<path d="M94.7991 25.156C94.3511 25.156 94.0271 25.06 93.8271 24.868C93.6351 24.668 93.5391 24.432 93.5391 24.16V23.74C93.5391 23.468 93.6351 23.236 93.8271 23.044C94.0271 22.844 94.3511 22.744 94.7991 22.744C95.2471 22.744 95.5671 22.844 95.7591 23.044C95.9591 23.236 96.0591 23.468 96.0591 23.74V24.16C96.0591 24.432 95.9591 24.668 95.7591 24.868C95.5671 25.06 95.2471 25.156 94.7991 25.156Z" fill="#00199A" fill-opacity="0.69005"/>
<path d="M8.45531 41.156C8.00731 41.156 7.68331 41.06 7.48331 40.868C7.29131 40.668 7.19531 40.432 7.19531 40.16V39.74C7.19531 39.468 7.29131 39.236 7.48331 39.044C7.68331 38.844 8.00731 38.744 8.45531 38.744C8.90331 38.744 9.22331 38.844 9.41531 39.044C9.61531 39.236 9.71531 39.468 9.71531 39.74V40.16C9.71531 40.432 9.61531 40.668 9.41531 40.868C9.22331 41.06 8.90331 41.156 8.45531 41.156Z" fill="#00199A" fill-opacity="0.69005"/>
<path d="M12.6986 41.012L12.1826 32.636H13.7306L13.9706 37.652L14.0426 39.236H14.1506L14.8706 34.46H16.4906L17.2106 39.236H17.3186L17.3906 37.7L17.6306 32.636H19.1186L18.6026 41.012H16.3226L15.7106 36.392H15.5906L14.9786 41.012H12.6986Z" fill="#00199A" fill-opacity="0.69005"/>
<path d="M19.8939 41.012L19.3779 32.636H20.9259L21.1659 37.652L21.2379 39.236H21.3459L22.0659 34.46H23.6859L24.4059 39.236H24.5139L24.5859 37.7L24.8259 32.636H26.3139L25.7979 41.012H23.5179L22.9059 36.392H22.7859L22.1739 41.012H19.8939Z" fill="#00199A" fill-opacity="0.69005"/>
<path d="M29.1292 41.012H27.3533V32.636H30.5933C31.0013 32.636 31.3652 32.7 31.6852 32.828C32.0052 32.948 32.2733 33.124 32.4893 33.356C32.7133 33.588 32.8813 33.868 32.9933 34.196C33.1053 34.524 33.1613 34.892 33.1613 35.3C33.1613 35.892 33.0332 36.4 32.7772 36.824C32.5212 37.248 32.1572 37.528 31.6852 37.664L33.3293 41.012H31.3613L29.9572 37.904H29.1292V41.012ZM30.1613 36.512C30.5853 36.512 30.8773 36.432 31.0373 36.272C31.2053 36.112 31.2892 35.848 31.2892 35.48V35.12C31.2892 34.752 31.2053 34.488 31.0373 34.328C30.8773 34.168 30.5853 34.088 30.1613 34.088H29.1292V36.512H30.1613Z" fill="#00199A" fill-opacity="0.69005"/>
<path d="M35.0766 32.132H37.3566L35.7006 36.044H34.3926L35.0766 32.132ZM38.1726 32.132H40.4526L38.7966 36.044H37.4886L38.1726 32.132Z" fill="#00199A" fill-opacity="0.69005"/>
<path d="M71.6771 32.132H72.9851L72.3011 36.044H70.0211L71.6771 32.132ZM74.7731 32.132H76.0811L75.3971 36.044H73.1171L74.7731 32.132Z" fill="#00199A" fill-opacity="0.69005"/>
<path d="M80.2764 41.156C79.5724 41.156 78.9604 41.04 78.4404 40.808C77.9204 40.576 77.5004 40.26 77.1804 39.86L78.2244 38.708C78.5284 39.044 78.8604 39.292 79.2204 39.452C79.5884 39.612 79.9604 39.692 80.3364 39.692C80.7684 39.692 81.0964 39.596 81.3204 39.404C81.5444 39.212 81.6564 38.936 81.6564 38.576C81.6564 38.28 81.5684 38.056 81.3924 37.904C81.2244 37.752 80.9364 37.644 80.5284 37.58L79.6524 37.436C78.9004 37.308 78.3564 37.032 78.0204 36.608C77.6844 36.176 77.5164 35.652 77.5164 35.036C77.5164 34.228 77.7804 33.604 78.3084 33.164C78.8364 32.716 79.5764 32.492 80.5284 32.492C81.1764 32.492 81.7404 32.592 82.2204 32.792C82.7004 32.992 83.0884 33.264 83.3844 33.608L82.3644 34.748C82.1404 34.5 81.8764 34.308 81.5724 34.172C81.2684 34.028 80.9244 33.956 80.5404 33.956C79.7324 33.956 79.3284 34.288 79.3284 34.952C79.3284 35.24 79.4164 35.456 79.5924 35.6C79.7764 35.744 80.0724 35.852 80.4804 35.924L81.3564 36.08C82.0364 36.2 82.5604 36.456 82.9284 36.848C83.2964 37.24 83.4804 37.768 83.4804 38.432C83.4804 38.824 83.4124 39.188 83.2764 39.524C83.1404 39.852 82.9364 40.14 82.6644 40.388C82.3924 40.628 82.0564 40.816 81.6564 40.952C81.2644 41.088 80.8044 41.156 80.2764 41.156Z" fill="#00199A" fill-opacity="0.69005"/>
<path d="M85.1317 41.012V39.56H87.3878V33.944H87.2798L85.5757 36.176L84.4238 35.276L86.4277 32.636H89.1877V39.56H90.9637V41.012H85.1317Z" fill="#00199A" fill-opacity="0.69005"/>
<path d="M95.8551 37.508H93.7431V41.012H91.9311V32.636H93.7431V36.032H95.8551V32.636H97.6671V41.012H95.8551V37.508Z" fill="#00199A" fill-opacity="0.69005"/>
<path d="M101.994 41.156C101.546 41.156 101.222 41.06 101.022 40.868C100.83 40.668 100.734 40.432 100.734 40.16V39.74C100.734 39.468 100.83 39.236 101.022 39.044C101.222 38.844 101.546 38.744 101.994 38.744C102.442 38.744 102.762 38.844 102.954 39.044C103.154 39.236 103.254 39.468 103.254 39.74V40.16C103.254 40.432 103.154 40.668 102.954 40.868C102.762 41.06 102.442 41.156 101.994 41.156Z" fill="#00199A" fill-opacity="0.69005"/>
<path d="M1.26 57.156C0.812 57.156 0.488 57.06 0.288 56.868C0.0960001 56.668 0 56.432 0 56.16V55.74C0 55.468 0.0960001 55.236 0.288 55.044C0.488 54.844 0.812 54.744 1.26 54.744C1.708 54.744 2.028 54.844 2.22 55.044C2.42 55.236 2.52 55.468 2.52 55.74V56.16C2.52 56.432 2.42 56.668 2.22 56.868C2.028 57.06 1.708 57.156 1.26 57.156ZM1.26 53.088C0.812 53.088 0.488 52.992 0.288 52.8C0.0960001 52.6 0 52.364 0 52.092V51.672C0 51.4 0.0960001 51.168 0.288 50.976C0.488 50.776 0.812 50.676 1.26 50.676C1.708 50.676 2.028 50.776 2.22 50.976C2.42 51.168 2.52 51.4 2.52 51.672V52.092C2.52 52.364 2.42 52.6 2.22 52.8C2.028 52.992 1.708 53.088 1.26 53.088Z" fill="#00199A" fill-opacity="0.69005"/>
<path d="M8.83931 50.028C8.43931 50.028 8.15931 49.948 7.99931 49.788C7.84731 49.62 7.77131 49.42 7.77131 49.188V48.84C7.77131 48.6 7.84731 48.4 7.99931 48.24C8.15931 48.08 8.43931 48 8.83931 48C9.23931 48 9.51531 48.08 9.66731 48.24C9.82731 48.4 9.90731 48.6 9.90731 48.84V49.188C9.90731 49.42 9.82731 49.62 9.66731 49.788C9.51531 49.948 9.23931 50.028 8.83931 50.028ZM5.98331 55.632H7.95131V52.2H5.98331V50.82H9.72731V55.632H11.5513V57.012H5.98331V55.632Z" fill="#00199A" fill-opacity="0.69005"/>
<path d="M12.6986 57.012L12.1826 48.636H13.7306L13.9706 53.652L14.0426 55.236H14.1506L14.8706 50.46H16.4906L17.2106 55.236H17.3186L17.3906 53.7L17.6306 48.636H19.1186L18.6026 57.012H16.3226L15.7106 52.392H15.5906L14.9786 57.012H12.6986Z" fill="#00199A" fill-opacity="0.69005"/>
<path d="M21.7419 54.216V52.38C22.3419 52.356 22.8179 52.252 23.1699 52.068C23.5219 51.884 23.6979 51.564 23.6979 51.108V50.94C23.6979 50.604 23.5979 50.364 23.3979 50.22C23.2059 50.076 22.9659 50.004 22.6779 50.004C22.3499 50.004 22.0819 50.1 21.8739 50.292C21.6659 50.476 21.5219 50.72 21.4419 51.024L19.9779 50.412C20.0499 50.172 20.1539 49.94 20.2899 49.716C20.4339 49.484 20.6179 49.28 20.8419 49.104C21.0659 48.92 21.3339 48.772 21.6459 48.66C21.9579 48.548 22.3219 48.492 22.7379 48.492C23.1619 48.492 23.5459 48.552 23.8899 48.672C24.2419 48.792 24.5419 48.96 24.7899 49.176C25.0379 49.392 25.2299 49.652 25.3659 49.956C25.5019 50.26 25.5699 50.592 25.5699 50.952C25.5699 51.288 25.5099 51.596 25.3899 51.876C25.2779 52.148 25.1219 52.388 24.9219 52.596C24.7299 52.796 24.5019 52.96 24.2379 53.088C23.9819 53.216 23.7099 53.304 23.4219 53.352V54.216H21.7419ZM22.6059 57.156C22.1819 57.156 21.8779 57.064 21.6939 56.88C21.5179 56.696 21.4299 56.476 21.4299 56.22V55.836C21.4299 55.58 21.5179 55.364 21.6939 55.188C21.8779 55.004 22.1819 54.912 22.6059 54.912C23.0299 54.912 23.3339 55.004 23.5179 55.188C23.7019 55.372 23.7939 55.588 23.7939 55.836V56.22C23.7939 56.476 23.7019 56.696 23.5179 56.88C23.3419 57.064 23.0379 57.156 22.6059 57.156Z" fill="#00199A" fill-opacity="0.69005"/>
<path d="M31.0972 53.508H28.9853V57.012H27.1733V48.636H28.9853V52.032H31.0972V48.636H32.9093V57.012H31.0972V53.508Z" fill="#00199A" fill-opacity="0.69005"/>
<path d="M80.2764 57.156C79.5724 57.156 78.9604 57.04 78.4404 56.808C77.9204 56.576 77.5004 56.26 77.1804 55.86L78.2244 54.708C78.5284 55.044 78.8604 55.292 79.2204 55.452C79.5884 55.612 79.9604 55.692 80.3364 55.692C80.7684 55.692 81.0964 55.596 81.3204 55.404C81.5444 55.212 81.6564 54.936 81.6564 54.576C81.6564 54.28 81.5684 54.056 81.3924 53.904C81.2244 53.752 80.9364 53.644 80.5284 53.58L79.6524 53.436C78.9004 53.308 78.3564 53.032 78.0204 52.608C77.6844 52.176 77.5164 51.652 77.5164 51.036C77.5164 50.228 77.7804 49.604 78.3084 49.164C78.8364 48.716 79.5764 48.492 80.5284 48.492C81.1764 48.492 81.7404 48.592 82.2204 48.792C82.7004 48.992 83.0884 49.264 83.3844 49.608L82.3644 50.748C82.1404 50.5 81.8764 50.308 81.5724 50.172C81.2684 50.028 80.9244 49.956 80.5404 49.956C79.7324 49.956 79.3284 50.288 79.3284 50.952C79.3284 51.24 79.4164 51.456 79.5924 51.6C79.7764 51.744 80.0724 51.852 80.4804 51.924L81.3564 52.08C82.0364 52.2 82.5604 52.456 82.9284 52.848C83.2964 53.24 83.4804 53.768 83.4804 54.432C83.4804 54.824 83.4124 55.188 83.2764 55.524C83.1404 55.852 82.9364 56.14 82.6644 56.388C82.3924 56.628 82.0564 56.816 81.6564 56.952C81.2644 57.088 80.8044 57.156 80.2764 57.156Z" fill="#00199A" fill-opacity="0.69005"/>
<path d="M90.6638 57.012H84.6398V55.368L87.2798 53.172C87.7358 52.78 88.0637 52.44 88.2637 52.152C88.4637 51.864 88.5638 51.56 88.5638 51.24V51.12C88.5638 50.768 88.4598 50.504 88.2518 50.328C88.0438 50.144 87.7637 50.052 87.4117 50.052C87.0117 50.052 86.7037 50.168 86.4877 50.4C86.2717 50.632 86.1198 50.908 86.0318 51.228L84.4597 50.628C84.5557 50.34 84.6877 50.068 84.8557 49.812C85.0237 49.548 85.2357 49.32 85.4917 49.128C85.7557 48.936 86.0597 48.784 86.4037 48.672C86.7477 48.552 87.1438 48.492 87.5918 48.492C88.0478 48.492 88.4557 48.556 88.8158 48.684C89.1758 48.812 89.4798 48.988 89.7278 49.212C89.9758 49.436 90.1637 49.704 90.2917 50.016C90.4197 50.32 90.4837 50.652 90.4837 51.012C90.4837 51.364 90.4238 51.688 90.3038 51.984C90.1918 52.272 90.0317 52.544 89.8237 52.8C89.6237 53.056 89.3837 53.304 89.1037 53.544C88.8317 53.784 88.5398 54.024 88.2278 54.264L86.6317 55.5H90.6638V57.012Z" fill="#00199A" fill-opacity="0.69005"/>
<path d="M95.8551 53.508H93.7431V57.012H91.9311V48.636H93.7431V52.032H95.8551V48.636H97.6671V57.012H95.8551V53.508Z" fill="#00199A" fill-opacity="0.69005"/>
<path d="M102.378 50.028C101.978 50.028 101.698 49.948 101.538 49.788C101.386 49.62 101.31 49.42 101.31 49.188V48.84C101.31 48.6 101.386 48.4 101.538 48.24C101.698 48.08 101.978 48 102.378 48C102.778 48 103.054 48.08 103.206 48.24C103.366 48.4 103.446 48.6 103.446 48.84V49.188C103.446 49.42 103.366 49.62 103.206 49.788C103.054 49.948 102.778 50.028 102.378 50.028ZM99.5224 55.632H101.49V52.2H99.5224V50.82H103.266V55.632H105.09V57.012H99.5224V55.632Z" fill="#00199A" fill-opacity="0.69005"/>
<path d="M108.314 54.924H110.594L108.95 58.824H107.63L108.314 54.924Z" fill="#00199A" fill-opacity="0.69005"/>
<path d="M1.26 73.156C0.812 73.156 0.488 73.06 0.288 72.868C0.0960001 72.668 0 72.432 0 72.16V71.74C0 71.468 0.0960001 71.236 0.288 71.044C0.488 70.844 0.812 70.744 1.26 70.744C1.708 70.744 2.028 70.844 2.22 71.044C2.42 71.236 2.52 71.468 2.52 71.74V72.16C2.52 72.432 2.42 72.668 2.22 72.868C2.028 73.06 1.708 73.156 1.26 73.156ZM1.26 69.088C0.812 69.088 0.488 68.992 0.288 68.8C0.0960001 68.6 0 68.364 0 68.092V67.672C0 67.4 0.0960001 67.168 0.288 66.976C0.488 66.776 0.812 66.676 1.26 66.676C1.708 66.676 2.028 66.776 2.22 66.976C2.42 67.168 2.52 67.4 2.52 67.672V68.092C2.52 68.364 2.42 68.6 2.22 68.8C2.028 68.992 1.708 69.088 1.26 69.088Z" fill="#00199A" fill-opacity="0.69005"/>
<path d="M5.75531 73.012V71.68H7.55531V65.968H5.75531V64.636H11.1553V65.968H9.35531V71.68H11.1553V73.012H5.75531Z" fill="#00199A" fill-opacity="0.69005"/>
<path d="M14.5346 73.156C14.1586 73.156 13.8266 73.092 13.5386 72.964C13.2506 72.828 13.0066 72.652 12.8066 72.436C12.6146 72.212 12.4666 71.956 12.3626 71.668C12.2666 71.372 12.2186 71.06 12.2186 70.732C12.2186 70.228 12.3386 69.788 12.5786 69.412C12.8186 69.036 13.1706 68.712 13.6346 68.44C13.3786 68.08 13.1826 67.76 13.0466 67.48C12.9186 67.2 12.8546 66.908 12.8546 66.604C12.8546 66.308 12.9106 66.032 13.0226 65.776C13.1426 65.512 13.3066 65.288 13.5146 65.104C13.7306 64.912 13.9786 64.764 14.2586 64.66C14.5466 64.548 14.8586 64.492 15.1946 64.492C15.4906 64.492 15.7666 64.536 16.0226 64.624C16.2786 64.704 16.5026 64.812 16.6946 64.948C16.8946 65.084 17.0586 65.244 17.1866 65.428C17.3226 65.604 17.4226 65.788 17.4866 65.98L16.2626 66.64C16.1746 66.384 16.0386 66.184 15.8546 66.04C15.6706 65.888 15.4586 65.812 15.2186 65.812C14.9786 65.812 14.7826 65.884 14.6306 66.028C14.4866 66.172 14.4146 66.36 14.4146 66.592V66.652C14.4146 66.764 14.4306 66.872 14.4626 66.976C14.4946 67.072 14.5506 67.184 14.6306 67.312C14.7106 67.432 14.8106 67.576 14.9306 67.744C15.0586 67.904 15.2186 68.104 15.4106 68.344L16.0946 69.208L16.6706 70.096H16.7426C16.7666 69.96 16.7866 69.812 16.8026 69.652C16.8186 69.484 16.8306 69.316 16.8386 69.148C16.8546 68.972 16.8626 68.804 16.8626 68.644C16.8706 68.476 16.8746 68.324 16.8746 68.188H19.0106V69.508H18.1706C18.1306 69.764 18.0706 70.028 17.9906 70.3C17.9106 70.564 17.8066 70.836 17.6786 71.116L19.2386 73.012H17.3426L16.3826 71.848H16.2986C16.2426 72.256 16.0586 72.576 15.7466 72.808C15.4346 73.04 15.0306 73.156 14.5346 73.156ZM14.9786 71.8C15.1626 71.8 15.3346 71.768 15.4946 71.704C15.6546 71.632 15.7906 71.504 15.9026 71.32L14.3546 69.352C14.1466 69.552 14.0106 69.756 13.9466 69.964C13.8826 70.164 13.8506 70.38 13.8506 70.612V70.636C13.8506 71.02 13.9506 71.312 14.1506 71.512C14.3586 71.704 14.6346 71.8 14.9786 71.8Z" fill="#00199A" fill-opacity="0.69005"/>
<path d="M19.8939 73.012L19.3779 64.636H20.9259L21.1659 69.652L21.2379 71.236H21.3459L22.0659 66.46H23.6859L24.4059 71.236H24.5139L24.5859 69.7L24.8259 64.636H26.3139L25.7979 73.012H23.5179L22.9059 68.392H22.7859L22.1739 73.012H19.8939Z" fill="#00199A" fill-opacity="0.69005"/>
<path d="M27.2092 64.636H29.9092C31.0372 64.636 31.8733 64.996 32.4173 65.716C32.9613 66.436 33.2332 67.472 33.2332 68.824C33.2332 70.176 32.9613 71.212 32.4173 71.932C31.8733 72.652 31.0372 73.012 29.9092 73.012H27.2092V64.636ZM29.7892 71.596C30.3252 71.596 30.7172 71.424 30.9652 71.08C31.2132 70.736 31.3372 70.236 31.3372 69.58V68.056C31.3372 67.408 31.2132 66.912 30.9652 66.568C30.7172 66.224 30.3252 66.052 29.7892 66.052H28.9853V71.596H29.7892Z" fill="#00199A" fill-opacity="0.69005"/>
<path d="M1.26 89.156C0.812 89.156 0.488 89.06 0.288 88.868C0.0960001 88.668 0 88.432 0 88.16V87.74C0 87.468 0.0960001 87.236 0.288 87.044C0.488 86.844 0.812 86.744 1.26 86.744C1.708 86.744 2.028 86.844 2.22 87.044C2.42 87.236 2.52 87.468 2.52 87.74V88.16C2.52 88.432 2.42 88.668 2.22 88.868C2.028 89.06 1.708 89.156 1.26 89.156ZM1.26 85.088C0.812 85.088 0.488 84.992 0.288 84.8C0.0960001 84.6 0 84.364 0 84.092V83.672C0 83.4 0.0960001 83.168 0.288 82.976C0.488 82.776 0.812 82.676 1.26 82.676C1.708 82.676 2.028 82.776 2.22 82.976C2.42 83.168 2.52 83.4 2.52 83.672V84.092C2.52 84.364 2.42 84.6 2.22 84.8C2.028 84.992 1.708 85.088 1.26 85.088Z" fill="#00199A" fill-opacity="0.69005"/>
<path d="M5.77931 80.636H8.71931C9.54331 80.636 10.1713 80.836 10.6033 81.236C11.0433 81.636 11.2633 82.18 11.2633 82.868C11.2633 83.348 11.1433 83.732 10.9033 84.02C10.6713 84.3 10.3353 84.504 9.89531 84.632V84.704C10.4153 84.832 10.8153 85.056 11.0953 85.376C11.3833 85.696 11.5273 86.14 11.5273 86.708C11.5273 87.412 11.3033 87.972 10.8553 88.388C10.4153 88.804 9.79531 89.012 8.99531 89.012H5.77931V80.636ZM8.44331 87.752C8.87531 87.752 9.19131 87.68 9.39131 87.536C9.59131 87.392 9.69131 87.128 9.69131 86.744V86.396C9.69131 86.012 9.59131 85.748 9.39131 85.604C9.19131 85.46 8.87531 85.388 8.44331 85.388H7.53131V87.752H8.44331ZM8.21531 84.188C8.63931 84.188 8.94731 84.12 9.13931 83.984C9.33131 83.84 9.42731 83.584 9.42731 83.216V82.856C9.42731 82.488 9.33131 82.236 9.13931 82.1C8.94731 81.964 8.63931 81.896 8.21531 81.896H7.53131V84.188H8.21531Z" fill="#00199A" fill-opacity="0.69005"/>
<path d="M16.9826 87.824H16.8746C16.8026 88 16.7146 88.168 16.6106 88.328C16.5066 88.488 16.3786 88.632 16.2266 88.76C16.0746 88.88 15.8946 88.976 15.6866 89.048C15.4866 89.12 15.2586 89.156 15.0026 89.156C14.5946 89.156 14.2306 89.06 13.9106 88.868C13.5986 88.676 13.3346 88.396 13.1186 88.028C12.9026 87.66 12.7386 87.212 12.6266 86.684C12.5226 86.156 12.4706 85.56 12.4706 84.896C12.4706 83.472 12.7306 82.384 13.2506 81.632C13.7706 80.872 14.5746 80.492 15.6626 80.492C16.0946 80.492 16.4746 80.552 16.8026 80.672C17.1306 80.784 17.4106 80.948 17.6426 81.164C17.8826 81.372 18.0786 81.624 18.2306 81.92C18.3826 82.216 18.5026 82.544 18.5906 82.904L16.9106 83.312C16.8626 83.136 16.8066 82.968 16.7426 82.808C16.6866 82.64 16.6106 82.492 16.5146 82.364C16.4186 82.236 16.2986 82.136 16.1546 82.064C16.0106 81.984 15.8346 81.944 15.6266 81.944C15.1706 81.944 14.8466 82.132 14.6546 82.508C14.4706 82.884 14.3786 83.412 14.3786 84.092V85.46C14.3786 86.14 14.4786 86.684 14.6786 87.092C14.8866 87.5 15.2506 87.704 15.7706 87.704C16.1786 87.704 16.4826 87.584 16.6826 87.344C16.8826 87.104 16.9826 86.796 16.9826 86.42V85.808H15.5546V84.536H18.5906V89.012H16.9826V87.824Z" fill="#00199A" fill-opacity="0.69005"/>
<path d="M22.2819 89.132C21.6819 89.084 21.1539 88.952 20.6979 88.736C20.2499 88.512 19.8859 88.22 19.6059 87.86L20.6499 86.72C20.9059 86.992 21.1779 87.204 21.4659 87.356C21.7619 87.508 22.0739 87.608 22.4019 87.656V85.448L22.1259 85.4C21.3579 85.264 20.7899 84.984 20.4219 84.56C20.0539 84.128 19.8699 83.604 19.8699 82.988C19.8699 82.308 20.0779 81.756 20.4939 81.332C20.9099 80.908 21.5059 80.644 22.2819 80.54V79.28H23.6499V80.528C24.1539 80.592 24.5819 80.72 24.9339 80.912C25.2939 81.104 25.5939 81.34 25.8339 81.62L24.8019 82.772C24.4659 82.404 24.0419 82.164 23.5299 82.052V84.056L23.8059 84.104C24.5739 84.248 25.1419 84.528 25.5099 84.944C25.8779 85.352 26.0619 85.86 26.0619 86.468C26.0619 86.796 26.0059 87.104 25.8939 87.392C25.7899 87.68 25.6339 87.936 25.4259 88.16C25.2259 88.384 24.9739 88.576 24.6699 88.736C24.3739 88.888 24.0339 89 23.6499 89.072V90.368H22.2819V89.132ZM21.5619 82.928C21.5619 83.184 21.6259 83.38 21.7539 83.516C21.8899 83.644 22.1059 83.748 22.4019 83.828V82.016C22.1059 82.064 21.8899 82.164 21.7539 82.316C21.6259 82.468 21.5619 82.672 21.5619 82.928ZM24.3819 86.588C24.3819 86.316 24.3139 86.112 24.1779 85.976C24.0419 85.84 23.8259 85.736 23.5299 85.664V87.644C23.8179 87.58 24.0299 87.46 24.1659 87.284C24.3099 87.1 24.3819 86.868 24.3819 86.588Z" fill="#00199A" fill-opacity="0.69005"/>
<path d="M29.1292 89.012H27.3533V80.636H30.5933C31.0013 80.636 31.3652 80.7 31.6852 80.828C32.0052 80.948 32.2733 81.124 32.4893 81.356C32.7133 81.588 32.8813 81.868 32.9933 82.196C33.1053 82.524 33.1613 82.892 33.1613 83.3C33.1613 83.892 33.0332 84.4 32.7772 84.824C32.5212 85.248 32.1572 85.528 31.6852 85.664L33.3293 89.012H31.3613L29.9572 85.904H29.1292V89.012ZM30.1613 84.512C30.5853 84.512 30.8773 84.432 31.0373 84.272C31.2053 84.112 31.2892 83.848 31.2892 83.48V83.12C31.2892 82.752 31.2053 82.488 31.0373 82.328C30.8773 82.168 30.5853 82.088 30.1613 82.088H29.1292V84.512H30.1613Z" fill="#00199A" fill-opacity="0.69005"/>
<path d="M1.26 105.156C0.812 105.156 0.488 105.06 0.288 104.868C0.0960001 104.668 0 104.432 0 104.16V103.74C0 103.468 0.0960001 103.236 0.288 103.044C0.488 102.844 0.812 102.744 1.26 102.744C1.708 102.744 2.028 102.844 2.22 103.044C2.42 103.236 2.52 103.468 2.52 103.74V104.16C2.52 104.432 2.42 104.668 2.22 104.868C2.028 105.06 1.708 105.156 1.26 105.156ZM1.26 101.088C0.812 101.088 0.488 100.992 0.288 100.8C0.0960001 100.6 0 100.364 0 100.092V99.672C0 99.4 0.0960001 99.168 0.288 98.976C0.488 98.776 0.812 98.676 1.26 98.676C1.708 98.676 2.028 98.776 2.22 98.976C2.42 99.168 2.52 99.4 2.52 99.672V100.092C2.52 100.364 2.42 100.6 2.22 100.8C2.028 100.992 1.708 101.088 1.26 101.088Z" fill="#00199A" fill-opacity="0.69005"/>
<path d="M7.18331 105.012L4.96331 96.636H6.96731L7.95131 100.896L8.44331 103.308H8.53931L9.04331 100.896L10.0393 96.636H11.9473L9.72731 105.012H7.18331Z" fill="#00199A" fill-opacity="0.69005"/>
<path d="M15.6506 105.156C14.5306 105.156 13.7026 104.776 13.1666 104.016C12.6386 103.256 12.3746 102.192 12.3746 100.824C12.3746 99.456 12.6386 98.392 13.1666 97.632C13.7026 96.872 14.5306 96.492 15.6506 96.492C16.7706 96.492 17.5946 96.872 18.1226 97.632C18.6586 98.392 18.9266 99.456 18.9266 100.824C18.9266 102.192 18.6586 103.256 18.1226 104.016C17.5946 104.776 16.7706 105.156 15.6506 105.156ZM15.6506 103.704C16.1626 103.704 16.5146 103.516 16.7066 103.14C16.9066 102.756 17.0066 102.224 17.0066 101.544V100.092C17.0066 99.42 16.9066 98.896 16.7066 98.52C16.5146 98.136 16.1626 97.944 15.6506 97.944C15.1386 97.944 14.7826 98.136 14.5826 98.52C14.3906 98.896 14.2946 99.42 14.2946 100.092V101.556C14.2946 102.228 14.3906 102.756 14.5826 103.14C14.7826 103.516 15.1386 103.704 15.6506 103.704Z" fill="#00199A" fill-opacity="0.69005"/>
<path d="M20.1459 105.012V103.68H21.9459V97.968H20.1459V96.636H25.5459V97.968H23.7459V103.68H25.5459V105.012H20.1459Z" fill="#00199A" fill-opacity="0.69005"/>
<path d="M27.2092 96.636H29.9092C31.0372 96.636 31.8733 96.996 32.4173 97.716C32.9613 98.436 33.2332 99.472 33.2332 100.824C33.2332 102.176 32.9613 103.212 32.4173 103.932C31.8733 104.652 31.0372 105.012 29.9092 105.012H27.2092V96.636ZM29.7892 103.596C30.3252 103.596 30.7172 103.424 30.9652 103.08C31.2132 102.736 31.3372 102.236 31.3372 101.58V100.056C31.3372 99.408 31.2132 98.912 30.9652 98.568C30.7172 98.224 30.3252 98.052 29.7892 98.052H28.9853V103.596H29.7892Z" fill="#00199A" fill-opacity="0.69005"/>
<path d="M81.9204 101.28C81.9204 101.864 81.8524 102.428 81.7164 102.972C81.5884 103.508 81.4084 104.008 81.1764 104.472C80.9524 104.936 80.6884 105.356 80.3844 105.732C80.0804 106.108 79.7604 106.42 79.4244 106.668H77.6484C78.0164 106.412 78.3684 106.112 78.7044 105.768C79.0484 105.432 79.3444 105.06 79.5924 104.652C79.8484 104.244 80.0524 103.808 80.2044 103.344C80.3564 102.88 80.4324 102.396 80.4324 101.892V100.668C80.4324 100.164 80.3564 99.68 80.2044 99.216C80.0524 98.752 79.8484 98.316 79.5924 97.908C79.3444 97.5 79.0484 97.128 78.7044 96.792C78.3684 96.448 78.0164 96.148 77.6484 95.892H79.4244C79.7604 96.148 80.0804 96.464 80.3844 96.84C80.6884 97.208 80.9524 97.624 81.1764 98.088C81.4084 98.552 81.5884 99.056 81.7164 99.6C81.8524 100.136 81.9204 100.696 81.9204 101.28Z" fill="#00199A" fill-opacity="0.69005"/>
<path d="M87.2798 99.948C87.7438 99.948 88.0798 99.86 88.2878 99.684C88.5038 99.508 88.6118 99.292 88.6118 99.036V98.952C88.6118 98.648 88.5077 98.408 88.2997 98.232C88.0997 98.048 87.8117 97.956 87.4357 97.956C87.0917 97.956 86.7677 98.044 86.4637 98.22C86.1677 98.388 85.9157 98.632 85.7077 98.952L84.5677 97.896C84.7277 97.688 84.9037 97.5 85.0957 97.332C85.2877 97.156 85.4998 97.008 85.7318 96.888C85.9638 96.76 86.2237 96.664 86.5117 96.6C86.8077 96.528 87.1398 96.492 87.5078 96.492C87.9638 96.492 88.3757 96.544 88.7437 96.648C89.1117 96.752 89.4237 96.904 89.6797 97.104C89.9437 97.296 90.1477 97.528 90.2917 97.8C90.4357 98.072 90.5078 98.376 90.5078 98.712C90.5078 98.976 90.4637 99.216 90.3757 99.432C90.2877 99.648 90.1677 99.836 90.0157 99.996C89.8717 100.156 89.6998 100.288 89.4998 100.392C89.3078 100.488 89.0997 100.556 88.8757 100.596V100.668C89.3877 100.756 89.8118 100.972 90.1478 101.316C90.4918 101.652 90.6638 102.108 90.6638 102.684C90.6638 103.06 90.5838 103.4 90.4238 103.704C90.2718 104.008 90.0517 104.268 89.7637 104.484C89.4837 104.7 89.1398 104.868 88.7318 104.988C88.3318 105.1 87.8838 105.156 87.3878 105.156C86.9638 105.156 86.5878 105.112 86.2598 105.024C85.9398 104.936 85.6557 104.82 85.4077 104.676C85.1597 104.524 84.9438 104.352 84.7598 104.16C84.5838 103.96 84.4277 103.756 84.2917 103.548L85.6237 102.516C85.8077 102.86 86.0358 103.144 86.3078 103.368C86.5878 103.584 86.9598 103.692 87.4238 103.692C87.8558 103.692 88.1878 103.592 88.4198 103.392C88.6518 103.192 88.7677 102.916 88.7677 102.564V102.48C88.7677 102.136 88.6357 101.88 88.3717 101.712C88.1077 101.536 87.7397 101.448 87.2677 101.448H86.4877V99.948H87.2798Z" fill="#00199A" fill-opacity="0.69005"/>
<path d="M95.2671 105.012V103.404H91.4991V101.868L94.8351 96.636H96.9951V102.012H98.0751V103.404H96.9951V105.012H95.2671ZM92.9511 102.012H95.2671V98.496H95.1591L92.9511 102.012Z" fill="#00199A" fill-opacity="0.69005"/>
<path d="M104.694 98.208H100.818L100.626 100.86H100.734C100.822 100.668 100.922 100.492 101.034 100.332C101.146 100.164 101.278 100.024 101.43 99.912C101.582 99.792 101.758 99.7 101.958 99.636C102.158 99.572 102.386 99.54 102.642 99.54C102.986 99.54 103.31 99.6 103.614 99.72C103.926 99.84 104.198 100.016 104.43 100.248C104.67 100.472 104.858 100.752 104.994 101.088C105.13 101.416 105.198 101.788 105.198 102.204C105.198 102.628 105.126 103.02 104.982 103.38C104.838 103.74 104.626 104.052 104.346 104.316C104.074 104.58 103.734 104.788 103.326 104.94C102.918 105.084 102.454 105.156 101.934 105.156C101.526 105.156 101.162 105.112 100.842 105.024C100.522 104.936 100.238 104.82 99.9904 104.676C99.7504 104.524 99.5384 104.352 99.3544 104.16C99.1784 103.96 99.0264 103.756 98.8984 103.548L100.206 102.516C100.302 102.676 100.402 102.828 100.506 102.972C100.618 103.116 100.742 103.244 100.878 103.356C101.022 103.46 101.178 103.544 101.346 103.608C101.522 103.664 101.722 103.692 101.946 103.692C102.394 103.692 102.73 103.572 102.954 103.332C103.186 103.084 103.302 102.756 103.302 102.348V102.252C103.302 101.86 103.186 101.552 102.954 101.328C102.722 101.104 102.402 100.992 101.994 100.992C101.658 100.992 101.378 101.06 101.154 101.196C100.938 101.324 100.774 101.452 100.662 101.58L99.1864 101.376L99.4984 96.636H104.694V98.208Z" fill="#00199A" fill-opacity="0.69005"/>
<path d="M108.566 96.132H110.846L109.19 100.044H107.882L108.566 96.132Z" fill="#00199A" fill-opacity="0.69005"/>
<path d="M1.26 121.156C0.812 121.156 0.488 121.06 0.288 120.868C0.0960001 120.668 0 120.432 0 120.16V119.74C0 119.468 0.0960001 119.236 0.288 119.044C0.488 118.844 0.812 118.744 1.26 118.744C1.708 118.744 2.028 118.844 2.22 119.044C2.42 119.236 2.52 119.468 2.52 119.74V120.16C2.52 120.432 2.42 120.668 2.22 120.868C2.028 121.06 1.708 121.156 1.26 121.156ZM1.26 117.088C0.812 117.088 0.488 116.992 0.288 116.8C0.0960001 116.6 0 116.364 0 116.092V115.672C0 115.4 0.0960001 115.168 0.288 114.976C0.488 114.776 0.812 114.676 1.26 114.676C1.708 114.676 2.028 114.776 2.22 114.976C2.42 115.168 2.52 115.4 2.52 115.672V116.092C2.52 116.364 2.42 116.6 2.22 116.8C2.028 116.992 1.708 117.088 1.26 117.088Z" fill="#00199A" fill-opacity="0.69005"/>
<path d="M5.81531 121.012V112.636H11.3713V114.112H7.61531V116.032H10.9753V117.508H7.61531V121.012H5.81531Z" fill="#00199A" fill-opacity="0.69005"/>
<path d="M14.5106 112.636V117.94C14.5106 118.204 14.5186 118.448 14.5346 118.672C14.5586 118.888 14.6066 119.072 14.6786 119.224C14.7586 119.376 14.8746 119.496 15.0266 119.584C15.1786 119.664 15.3866 119.704 15.6506 119.704C15.9146 119.704 16.1226 119.664 16.2746 119.584C16.4266 119.496 16.5386 119.376 16.6106 119.224C16.6906 119.072 16.7386 118.888 16.7546 118.672C16.7786 118.448 16.7906 118.204 16.7906 117.94V112.636H18.5906V117.7C18.5906 118.276 18.5506 118.78 18.4706 119.212C18.3986 119.644 18.2546 120.004 18.0386 120.292C17.8226 120.58 17.5226 120.796 17.1386 120.94C16.7546 121.084 16.2586 121.156 15.6506 121.156C15.0426 121.156 14.5466 121.084 14.1626 120.94C13.7786 120.796 13.4786 120.58 13.2626 120.292C13.0466 120.004 12.8986 119.644 12.8186 119.212C12.7466 118.78 12.7106 118.276 12.7106 117.7V112.636H14.5106Z" fill="#00199A" fill-opacity="0.69005"/>
<path d="M21.6459 115.444H21.5139V121.012H19.9779V112.636H22.1379L24.0459 118.204H24.1779V112.636H25.7139V121.012H23.5539L21.6459 115.444Z" fill="#00199A" fill-opacity="0.69005"/>
<path d="M28.5292 117.28C28.5292 116.696 28.5933 116.136 28.7213 115.6C28.8573 115.056 29.0372 114.552 29.2612 114.088C29.4932 113.624 29.7613 113.208 30.0653 112.84C30.3693 112.464 30.6892 112.148 31.0252 111.892H32.8013C32.4253 112.148 32.0692 112.448 31.7332 112.792C31.3972 113.128 31.1012 113.5 30.8452 113.908C30.5972 114.316 30.3973 114.752 30.2453 115.216C30.0933 115.68 30.0173 116.164 30.0173 116.668V117.892C30.0173 118.396 30.0933 118.88 30.2453 119.344C30.3973 119.808 30.5972 120.244 30.8452 120.652C31.1012 121.06 31.3972 121.432 31.7332 121.768C32.0692 122.112 32.4253 122.412 32.8013 122.668H31.0252C30.6892 122.42 30.3693 122.108 30.0653 121.732C29.7613 121.356 29.4932 120.936 29.2612 120.472C29.0372 120.008 28.8573 119.508 28.7213 118.972C28.5933 118.428 28.5292 117.864 28.5292 117.28Z" fill="#00199A" fill-opacity="0.69005"/>
<path d="M36.3606 118.924H38.6406L36.9966 122.824H35.6766L36.3606 118.924Z" fill="#00199A" fill-opacity="0.69005"/>
<path d="M73.2131 121.156C72.7651 121.156 72.4411 121.06 72.2411 120.868C72.0491 120.668 71.9531 120.432 71.9531 120.16V119.74C71.9531 119.468 72.0491 119.236 72.2411 119.044C72.4411 118.844 72.7651 118.744 73.2131 118.744C73.6611 118.744 73.9811 118.844 74.1731 119.044C74.3731 119.236 74.4731 119.468 74.4731 119.74V120.16C74.4731 120.432 74.3731 120.668 74.1731 120.868C73.9811 121.06 73.6611 121.156 73.2131 121.156Z" fill="#00199A" fill-opacity="0.69005"/>
<path d="M80.4084 121.156C79.2884 121.156 78.4604 120.776 77.9244 120.016C77.3964 119.256 77.1324 118.192 77.1324 116.824C77.1324 115.456 77.3964 114.392 77.9244 113.632C78.4604 112.872 79.2884 112.492 80.4084 112.492C81.5284 112.492 82.3524 112.872 82.8804 113.632C83.4164 114.392 83.6844 115.456 83.6844 116.824C83.6844 118.192 83.4164 119.256 82.8804 120.016C82.3524 120.776 81.5284 121.156 80.4084 121.156ZM80.4084 119.74C80.9444 119.74 81.3164 119.552 81.5244 119.176C81.7404 118.8 81.8484 118.276 81.8484 117.604V116.044C81.8484 115.372 81.7404 114.848 81.5244 114.472C81.3164 114.096 80.9444 113.908 80.4084 113.908C79.8724 113.908 79.4964 114.096 79.2804 114.472C79.0724 114.848 78.9684 115.372 78.9684 116.044V117.604C78.9684 118.276 79.0724 118.8 79.2804 119.176C79.4964 119.552 79.8724 119.74 80.4084 119.74ZM80.4084 117.532C80.1284 117.532 79.9324 117.476 79.8204 117.364C79.7164 117.252 79.6644 117.116 79.6644 116.956V116.692C79.6644 116.532 79.7164 116.396 79.8204 116.284C79.9324 116.172 80.1284 116.116 80.4084 116.116C80.6884 116.116 80.8804 116.172 80.9844 116.284C81.0964 116.396 81.1524 116.532 81.1524 116.692V116.956C81.1524 117.116 81.0964 117.252 80.9844 117.364C80.8804 117.476 80.6884 117.532 80.4084 117.532Z" fill="#00199A" fill-opacity="0.69005"/>
<path d="M85.1317 121.012V119.56H87.3878V113.944H87.2798L85.5757 116.176L84.4238 115.276L86.4277 112.636H89.1877V119.56H90.9637V121.012H85.1317Z" fill="#00199A" fill-opacity="0.69005"/>
<path d="M97.8591 121.012H91.8351V119.368L94.4751 117.172C94.9311 116.78 95.2591 116.44 95.4591 116.152C95.6591 115.864 95.7591 115.56 95.7591 115.24V115.12C95.7591 114.768 95.6551 114.504 95.4471 114.328C95.2391 114.144 94.9591 114.052 94.6071 114.052C94.2071 114.052 93.8991 114.168 93.6831 114.4C93.4671 114.632 93.3151 114.908 93.2271 115.228L91.6551 114.628C91.7511 114.34 91.8831 114.068 92.0511 113.812C92.2191 113.548 92.4311 113.32 92.6871 113.128C92.9511 112.936 93.2551 112.784 93.5991 112.672C93.9431 112.552 94.3391 112.492 94.7871 112.492C95.2431 112.492 95.6511 112.556 96.0111 112.684C96.3711 112.812 96.6751 112.988 96.9231 113.212C97.1711 113.436 97.3591 113.704 97.4871 114.016C97.6151 114.32 97.6791 114.652 97.6791 115.012C97.6791 115.364 97.6191 115.688 97.4991 115.984C97.3871 116.272 97.2271 116.544 97.0191 116.8C96.8191 117.056 96.5791 117.304 96.2991 117.544C96.0271 117.784 95.7351 118.024 95.4231 118.264L93.8271 119.5H97.8591V121.012Z" fill="#00199A" fill-opacity="0.69005"/>
<path d="M103.614 121.012L103.086 118.996H100.794L100.278 121.012H98.4544L100.722 112.636H103.266L105.534 121.012H103.614ZM101.994 114.376H101.898L101.082 117.544H102.81L101.994 114.376Z" fill="#00199A" fill-opacity="0.69005"/>
<path d="M15.3626 134.096L14.6786 131.072V128.636H16.6226V131.072L15.9386 134.096H15.3626ZM15.6506 137.156C15.2186 137.156 14.9146 137.064 14.7386 136.88C14.5626 136.696 14.4746 136.476 14.4746 136.22V135.836C14.4746 135.588 14.5626 135.372 14.7386 135.188C14.9226 135.004 15.2266 134.912 15.6506 134.912C16.0746 134.912 16.3746 135.004 16.5506 135.188C16.7346 135.372 16.8266 135.588 16.8266 135.836V136.22C16.8266 136.476 16.7386 136.696 16.5626 136.88C16.3866 137.064 16.0826 137.156 15.6506 137.156Z" fill="#00199A" fill-opacity="0.69005"/>
<path d="M24.4659 137.012L23.9379 134.996H21.6459L21.1299 137.012H19.3059L21.5739 128.636H24.1179L26.3859 137.012H24.4659ZM22.8459 130.376H22.7499L21.9339 133.544H23.6619L22.8459 130.376Z" fill="#00199A" fill-opacity="0.69005"/>
<path d="M27.2932 135.632H29.1173V132.2H27.1733V130.82H29.1173V129.92C29.1173 129.392 29.2692 128.964 29.5732 128.636C29.8852 128.3 30.3652 128.132 31.0132 128.132H33.1133V129.512H30.8932V130.82H33.1133V132.2H30.8932V135.632H32.8372V137.012H27.2932V135.632Z" fill="#00199A" fill-opacity="0.69005"/>
<path d="M38.2806 135.884H38.2086C38.0726 136.236 37.8566 136.536 37.5606 136.784C37.2726 137.032 36.8806 137.156 36.3846 137.156C36.0886 137.156 35.8166 137.108 35.5686 137.012C35.3206 136.908 35.1086 136.756 34.9326 136.556C34.7566 136.356 34.6166 136.112 34.5126 135.824C34.4166 135.536 34.3686 135.204 34.3686 134.828V130.82H36.1446V134.588C36.1446 135.388 36.4926 135.788 37.1886 135.788C37.3246 135.788 37.4566 135.772 37.5846 135.74C37.7206 135.7 37.8366 135.644 37.9326 135.572C38.0366 135.492 38.1206 135.396 38.1846 135.284C38.2486 135.172 38.2806 135.04 38.2806 134.888V130.82H40.0566V137.012H38.2806V135.884Z" fill="#00199A" fill-opacity="0.69005"/>
<path d="M41.6119 137.012V130.82H43.3879V131.948H43.4599C43.5319 131.772 43.6199 131.608 43.7239 131.456C43.8279 131.304 43.9519 131.172 44.0959 131.06C44.2479 130.94 44.4199 130.848 44.6119 130.784C44.8119 130.712 45.0359 130.676 45.2839 130.676C45.5799 130.676 45.8519 130.728 46.0999 130.832C46.3479 130.928 46.5599 131.076 46.7359 131.276C46.9119 131.476 47.0479 131.72 47.1439 132.008C47.2479 132.296 47.2999 132.628 47.2999 133.004V137.012H45.5239V133.244C45.5239 132.444 45.1759 132.044 44.4799 132.044C44.3439 132.044 44.2079 132.064 44.0719 132.104C43.9439 132.136 43.8279 132.192 43.7239 132.272C43.6199 132.344 43.5359 132.436 43.4719 132.548C43.4159 132.66 43.3879 132.792 43.3879 132.944V137.012H41.6119Z" fill="#00199A" fill-opacity="0.69005"/>
<path d="M51.8792 137.156C51.3912 137.156 50.9512 137.084 50.5592 136.94C50.1752 136.788 49.8472 136.572 49.5752 136.292C49.3112 136.012 49.1072 135.672 48.9632 135.272C48.8192 134.872 48.7472 134.42 48.7472 133.916C48.7472 133.412 48.8192 132.96 48.9632 132.56C49.1072 132.16 49.3112 131.82 49.5752 131.54C49.8472 131.26 50.1752 131.048 50.5592 130.904C50.9512 130.752 51.3872 130.676 51.8672 130.676C52.5472 130.676 53.0912 130.816 53.4992 131.096C53.9152 131.368 54.2312 131.732 54.4472 132.188L53.0792 132.932C52.9672 132.692 52.8192 132.492 52.6352 132.332C52.4592 132.172 52.2032 132.092 51.8672 132.092C51.4592 132.092 51.1432 132.212 50.9192 132.452C50.7032 132.684 50.5952 133.004 50.5952 133.412V134.42C50.5952 134.828 50.7032 135.152 50.9192 135.392C51.1432 135.624 51.4672 135.74 51.8912 135.74C52.2352 135.74 52.5032 135.66 52.6952 135.5C52.8952 135.34 53.0632 135.132 53.1992 134.876L54.5432 135.644C54.3192 136.1 53.9912 136.468 53.5592 136.748C53.1352 137.02 52.5752 137.156 51.8792 137.156Z" fill="#00199A" fill-opacity="0.69005"/>
<path d="M58.8225 137.156C57.7025 137.156 56.8745 136.776 56.3385 136.016C55.8105 135.256 55.5465 134.192 55.5465 132.824C55.5465 131.456 55.8105 130.392 56.3385 129.632C56.8745 128.872 57.7025 128.492 58.8225 128.492C59.9425 128.492 60.7665 128.872 61.2945 129.632C61.8305 130.392 62.0985 131.456 62.0985 132.824C62.0985 134.192 61.8305 135.256 61.2945 136.016C60.7665 136.776 59.9425 137.156 58.8225 137.156ZM58.8225 135.704C59.3345 135.704 59.6865 135.516 59.8785 135.14C60.0785 134.756 60.1785 134.224 60.1785 133.544V132.092C60.1785 131.42 60.0785 130.896 59.8785 130.52C59.6865 130.136 59.3345 129.944 58.8225 129.944C58.3105 129.944 57.9545 130.136 57.7545 130.52C57.5625 130.896 57.4665 131.42 57.4665 132.092V133.556C57.4665 134.228 57.5625 134.756 57.7545 135.14C57.9545 135.516 58.3105 135.704 58.8225 135.704Z" fill="#00199A" fill-opacity="0.69005"/>
<path d="M64.8178 131.444H64.6858V137.012H63.1498V128.636H65.3098L67.2178 134.204H67.3498V128.636H68.8858V137.012H66.7258L64.8178 131.444Z" fill="#00199A" fill-opacity="0.69005"/>
<path d="M70.5731 137.012V128.636H75.9251V130.112H72.3731V132.032H75.8051V133.508H72.3731V135.536H75.9251V137.012H70.5731Z" fill="#00199A" fill-opacity="0.69005"/>
<path d="M78.7884 132.956C78.1884 132.956 77.7244 132.76 77.3964 132.368C77.0684 131.968 76.9044 131.42 76.9044 130.724C76.9044 130.028 77.0684 129.484 77.3964 129.092C77.7244 128.692 78.1884 128.492 78.7884 128.492C79.3884 128.492 79.8524 128.692 80.1804 129.092C80.5084 129.484 80.6724 130.028 80.6724 130.724C80.6724 131.42 80.5084 131.968 80.1804 132.368C79.8524 132.76 79.3884 132.956 78.7884 132.956ZM78.7884 131.912C79.0204 131.912 79.1804 131.828 79.2684 131.66C79.3644 131.492 79.4124 131.268 79.4124 130.988V130.46C79.4124 130.18 79.3644 129.956 79.2684 129.788C79.1804 129.62 79.0204 129.536 78.7884 129.536C78.5564 129.536 78.3924 129.62 78.2964 129.788C78.2084 129.956 78.1644 130.18 78.1644 130.46V130.988C78.1644 131.268 78.2084 131.492 78.2964 131.66C78.3924 131.828 78.5564 131.912 78.7884 131.912ZM82.6284 128.636H83.9844L82.1724 132.236H80.8164L82.6284 128.636ZM78.6444 133.412H80.0004L78.1884 137.012H76.8324L78.6444 133.412ZM82.0404 137.156C81.4404 137.156 80.9764 136.96 80.6484 136.568C80.3204 136.168 80.1564 135.62 80.1564 134.924C80.1564 134.228 80.3204 133.684 80.6484 133.292C80.9764 132.892 81.4404 132.692 82.0404 132.692C82.6404 132.692 83.1044 132.892 83.4324 133.292C83.7604 133.684 83.9244 134.228 83.9244 134.924C83.9244 135.62 83.7604 136.168 83.4324 136.568C83.1044 136.96 82.6404 137.156 82.0404 137.156ZM82.0404 136.112C82.2724 136.112 82.4324 136.028 82.5204 135.86C82.6164 135.692 82.6644 135.468 82.6644 135.188V134.66C82.6644 134.38 82.6164 134.156 82.5204 133.988C82.4324 133.82 82.2724 133.736 82.0404 133.736C81.8084 133.736 81.6444 133.82 81.5484 133.988C81.4604 134.156 81.4164 134.38 81.4164 134.66V135.188C81.4164 135.468 81.4604 135.692 81.5484 135.86C81.6444 136.028 81.8084 136.112 82.0404 136.112Z" fill="#00199A" fill-opacity="0.69005"/>
<path d="M85.1078 138.032H87.4837V132.2H85.0838V130.82H89.2598V137.624C89.2598 138.144 89.1037 138.572 88.7917 138.908C88.4797 139.244 88.0077 139.412 87.3757 139.412H85.1078V138.032ZM88.3717 130.028C87.9717 130.028 87.6918 129.948 87.5318 129.788C87.3798 129.62 87.3038 129.42 87.3038 129.188V128.84C87.3038 128.6 87.3798 128.4 87.5318 128.24C87.6918 128.08 87.9717 128 88.3717 128C88.7637 128 89.0398 128.08 89.1998 128.24C89.3598 128.4 89.4397 128.6 89.4397 128.84V129.188C89.4397 129.42 89.3598 129.62 89.1998 129.788C89.0398 129.948 88.7637 130.028 88.3717 130.028Z" fill="#00199A" fill-opacity="0.69005"/>
<path d="M93.9231 134.924H96.2031L94.5591 138.824H93.2391L93.9231 134.924Z" fill="#00199A" fill-opacity="0.69005"/>
<path d="M22.8459 153.156C22.3979 153.156 22.0739 153.06 21.8739 152.868C21.6819 152.668 21.5859 152.432 21.5859 152.16V151.74C21.5859 151.468 21.6819 151.236 21.8739 151.044C22.0739 150.844 22.3979 150.744 22.8459 150.744C23.2939 150.744 23.6139 150.844 23.8059 151.044C24.0059 151.236 24.1059 151.468 24.1059 151.74V152.16C24.1059 152.432 24.0059 152.668 23.8059 152.868C23.6139 153.06 23.2939 153.156 22.8459 153.156ZM22.8459 149.088C22.3979 149.088 22.0739 148.992 21.8739 148.8C21.6819 148.6 21.5859 148.364 21.5859 148.092V147.672C21.5859 147.4 21.6819 147.168 21.8739 146.976C22.0739 146.776 22.3979 146.676 22.8459 146.676C23.2939 146.676 23.6139 146.776 23.8059 146.976C24.0059 147.168 24.1059 147.4 24.1059 147.672V148.092C24.1059 148.364 24.0059 148.6 23.8059 148.8C23.6139 148.992 23.2939 149.088 22.8459 149.088Z" fill="#00199A" fill-opacity="0.69005"/>
<path d="M30.2093 153.156C29.1693 153.156 28.3812 152.868 27.8452 152.292C27.3092 151.716 27.0413 150.932 27.0413 149.94C27.0413 149.436 27.1093 148.984 27.2453 148.584C27.3893 148.176 27.5892 147.832 27.8452 147.552C28.1092 147.264 28.4252 147.048 28.7932 146.904C29.1692 146.752 29.5892 146.676 30.0532 146.676C30.5172 146.676 30.9333 146.752 31.3013 146.904C31.6693 147.048 31.9813 147.256 32.2373 147.528C32.4933 147.8 32.6892 148.132 32.8252 148.524C32.9692 148.908 33.0412 149.34 33.0412 149.82V150.348H28.8053V150.456C28.8053 150.856 28.9292 151.18 29.1772 151.428C29.4252 151.668 29.7892 151.788 30.2692 151.788C30.6372 151.788 30.9533 151.72 31.2173 151.584C31.4813 151.44 31.7092 151.252 31.9012 151.02L32.8613 152.064C32.6213 152.36 32.2852 152.616 31.8532 152.832C31.4212 153.048 30.8733 153.156 30.2093 153.156ZM30.0653 147.948C29.6813 147.948 29.3733 148.068 29.1413 148.308C28.9173 148.54 28.8053 148.856 28.8053 149.256V149.352H31.3013V149.256C31.3013 148.848 31.1892 148.528 30.9652 148.296C30.7492 148.064 30.4493 147.948 30.0653 147.948Z" fill="#00199A" fill-opacity="0.69005"/>
<path d="M34.4166 153.012V146.82H36.1926V147.948H36.2646C36.3366 147.772 36.4246 147.608 36.5286 147.456C36.6326 147.304 36.7566 147.172 36.9006 147.06C37.0526 146.94 37.2246 146.848 37.4166 146.784C37.6166 146.712 37.8406 146.676 38.0886 146.676C38.3846 146.676 38.6566 146.728 38.9046 146.832C39.1526 146.928 39.3646 147.076 39.5406 147.276C39.7166 147.476 39.8526 147.72 39.9486 148.008C40.0526 148.296 40.1046 148.628 40.1046 149.004V153.012H38.3286V149.244C38.3286 148.444 37.9806 148.044 37.2846 148.044C37.1486 148.044 37.0126 148.064 36.8766 148.104C36.7486 148.136 36.6326 148.192 36.5286 148.272C36.4246 148.344 36.3406 148.436 36.2766 148.548C36.2206 148.66 36.1926 148.792 36.1926 148.944V153.012H34.4166Z" fill="#00199A" fill-opacity="0.69005"/>
<path d="M45.5479 151.884H45.4639C45.3039 152.26 45.0799 152.568 44.7919 152.808C44.5119 153.04 44.1239 153.156 43.6279 153.156C43.2839 153.156 42.9679 153.092 42.6799 152.964C42.3999 152.836 42.1559 152.64 41.9479 152.376C41.7479 152.112 41.5879 151.776 41.4679 151.368C41.3559 150.96 41.2999 150.476 41.2999 149.916C41.2999 149.356 41.3559 148.872 41.4679 148.464C41.5879 148.056 41.7479 147.72 41.9479 147.456C42.1559 147.192 42.3999 146.996 42.6799 146.868C42.9679 146.74 43.2839 146.676 43.6279 146.676C43.8759 146.676 44.0959 146.708 44.2879 146.772C44.4799 146.836 44.6479 146.924 44.7919 147.036C44.9439 147.148 45.0719 147.284 45.1759 147.444C45.2879 147.596 45.3839 147.764 45.4639 147.948H45.5479V144.132H47.3239V153.012H45.5479V151.884ZM44.3959 151.776C44.7079 151.776 44.9759 151.7 45.1999 151.548C45.4319 151.396 45.5479 151.156 45.5479 150.828V149.004C45.5479 148.676 45.4319 148.436 45.1999 148.284C44.9759 148.132 44.7079 148.056 44.3959 148.056C43.9959 148.056 43.6879 148.18 43.4719 148.428C43.2559 148.668 43.1479 149.004 43.1479 149.436V150.396C43.1479 150.828 43.2559 151.168 43.4719 151.416C43.6879 151.656 43.9959 151.776 44.3959 151.776Z" fill="#00199A" fill-opacity="0.69005"/>
<path d="M48.8432 151.632H50.7392V145.512H48.8432V144.132H52.5152V151.632H54.4112V153.012H48.8432V151.632Z" fill="#00199A" fill-opacity="0.69005"/>
<path d="M56.1825 153.012V144.636H61.7385V146.112H57.9825V148.032H61.3425V149.508H57.9825V153.012H56.1825Z" fill="#00199A" fill-opacity="0.69005"/>
<path d="M63.3058 151.632H64.7338V148.2H63.3058V146.82H66.5098V148.572H66.5938C66.6498 148.348 66.7258 148.132 66.8218 147.924C66.9258 147.708 67.0538 147.52 67.2058 147.36C67.3658 147.192 67.5578 147.06 67.7818 146.964C68.0058 146.868 68.2698 146.82 68.5738 146.82H69.1618V148.452H67.8418C67.4018 148.452 67.0698 148.584 66.8458 148.848C66.6218 149.104 66.5098 149.42 66.5098 149.796V151.632H68.5498V153.012H63.3058V151.632Z" fill="#00199A" fill-opacity="0.69005"/>
<path d="M75.4571 153.012C75.0891 153.012 74.7931 152.92 74.5691 152.736C74.3451 152.544 74.2131 152.272 74.1731 151.92H74.1131C74.0011 152.328 73.7771 152.636 73.4411 152.844C73.1131 153.052 72.7091 153.156 72.2291 153.156C71.6291 153.156 71.1451 152.996 70.7771 152.676C70.4171 152.348 70.2371 151.892 70.2371 151.308C70.2371 150.66 70.4731 150.18 70.9451 149.868C71.4171 149.556 72.1091 149.4 73.0211 149.4H74.0171V149.088C74.0171 148.72 73.9291 148.444 73.7531 148.26C73.5851 148.068 73.2971 147.972 72.8891 147.972C72.5131 147.972 72.2091 148.044 71.9771 148.188C71.7451 148.332 71.5451 148.52 71.3771 148.752L70.4051 147.888C70.6131 147.536 70.9371 147.248 71.3771 147.024C71.8251 146.792 72.3971 146.676 73.0931 146.676C73.9411 146.676 74.6011 146.872 75.0731 147.264C75.5531 147.648 75.7931 148.232 75.7931 149.016V151.728H76.4771V153.012H75.4571ZM72.9011 151.992C73.2131 151.992 73.4771 151.916 73.6931 151.764C73.9091 151.612 74.0171 151.392 74.0171 151.104V150.36H73.0691C72.3411 150.36 71.9771 150.604 71.9771 151.092V151.332C71.9771 151.548 72.0611 151.712 72.2291 151.824C72.3971 151.936 72.6211 151.992 72.9011 151.992Z" fill="#00199A" fill-opacity="0.69005"/>
<path d="M79.2084 147.444H79.0764V153.012H77.5404V144.636H79.7004L81.6084 150.204H81.7404V144.636H83.2764V153.012H81.1164L79.2084 147.444Z" fill="#00199A" fill-opacity="0.69005"/>
<path d="M87.6037 153.156C87.1557 153.156 86.8317 153.06 86.6317 152.868C86.4397 152.668 86.3438 152.432 86.3438 152.16V151.74C86.3438 151.468 86.4397 151.236 86.6317 151.044C86.8317 150.844 87.1557 150.744 87.6037 150.744C88.0517 150.744 88.3718 150.844 88.5638 151.044C88.7638 151.236 88.8638 151.468 88.8638 151.74V152.16C88.8638 152.432 88.7638 152.668 88.5638 152.868C88.3718 153.06 88.0517 153.156 87.6037 153.156Z" fill="#00199A" fill-opacity="0.69005"/>
</svg>
